<svg xmlns="http://www.w3.org/2000/svg" width="500" height="500" viewBox="0 0 500 500" version="1.1"><path d="M 234 152 C 234 157.333, 234.407 161, 235 161 C 235.561 161, 236.029 158.040, 236.066 154.250 L 236.131 147.500 238.215 154.250 C 241.260 164.116, 243 163.298, 243 152 C 243 146.667, 242.593 143, 242 143 C 241.450 143, 240.958 145.812, 240.906 149.250 L 240.813 155.500 238.871 149.250 C 237.647 145.313, 236.387 143, 235.464 143 C 234.287 143, 234 144.764, 234 152 M 218.637 144.711 C 216.637 145.226, 216.691 146.799, 219.098 158.023 C 220.384 164.017, 222.493 164.875, 221.500 159 C 220.901 155.452, 221.048 155, 222.805 155 C 224.867 155, 226 156.803, 226 160.082 C 226 161.137, 226.644 162, 227.430 162 C 228.540 162, 228.670 161.336, 228.009 159.033 C 227.541 157.400, 226.806 155.494, 226.375 154.797 C 225.943 154.099, 225.712 152.121, 225.860 150.401 C 226.021 148.530, 225.472 146.615, 224.493 145.636 C 222.837 143.980, 221.997 143.847, 218.637 144.711 M 251.511 146.033 C 251.907 147.282, 252.252 151.610, 252.278 155.652 C 252.304 159.693, 252.702 163, 253.163 163 C 253.623 163, 254 161.943, 254 160.651 C 254 159.359, 255.588 155.309, 257.529 151.651 C 259.471 147.993, 260.605 145, 260.050 145 C 259.495 145, 258.027 146.912, 256.787 149.250 L 254.533 153.500 254.017 149.078 C 253.731 146.630, 252.895 144.456, 252.145 144.209 C 251.145 143.880, 250.979 144.357, 251.511 146.033 M 219.684 146.703 C 218.742 148.226, 220.232 153, 221.648 153 C 223.544 153, 224.557 150.106, 223.338 148.174 C 222.160 146.307, 220.373 145.588, 219.684 146.703 M 206.772 148.561 C 206.445 148.888, 207.496 152.352, 209.107 156.260 C 210.959 160.752, 211.687 163.713, 211.085 164.315 C 209.251 166.149, 207.478 164.188, 205.035 157.623 C 203.679 153.980, 202.010 151, 201.326 151 C 200.507 151, 201.187 153.642, 203.321 158.750 C 206.052 165.285, 206.960 166.547, 209.115 166.801 C 214.006 167.376, 214.620 164.790, 211.510 156.721 C 208.549 149.038, 207.721 147.612, 206.772 148.561 M 261.459 156.067 C 260.599 157.457, 260.457 157.385, 268 159.377 C 273.391 160.801, 279.578 163.085, 287.750 166.666 C 288.468 166.981, 289 166.507, 289 165.552 C 289 163.633, 280.959 159.758, 271.003 156.879 C 263.493 154.707, 262.359 154.610, 261.459 156.067 M 187.667 157.667 C 186.237 159.097, 187.137 162.629, 190.236 167.741 C 193.767 173.569, 197.107 175.321, 199.714 172.714 C 201.757 170.672, 200.880 167.691, 196.490 161.750 C 193.170 157.256, 189.688 155.645, 187.667 157.667 M 189 160.512 C 189 162.638, 195.251 171.960, 196.691 171.982 C 199.242 172.021, 198.983 169.784, 195.824 164.502 C 192.659 159.211, 189 157.071, 189 160.512 M 177.791 165.539 C 177.401 165.931, 179.354 168.864, 182.130 172.056 C 186.105 176.627, 187.031 178.326, 186.485 180.049 C 185.978 181.646, 186.156 182.116, 187.145 181.791 C 190.319 180.748, 189.033 176.531, 183.753 170.663 C 180.864 167.453, 178.181 165.147, 177.791 165.539 M 311 166.538 C 311 166.834, 313.630 170.997, 316.844 175.788 C 320.058 180.580, 322.496 185.063, 322.261 185.750 C 322.026 186.438, 322.449 187, 323.201 187 C 324.452 187, 328.652 192.789, 327.847 193.404 C 327.656 193.550, 320.750 195.495, 312.500 197.725 L 297.500 201.779 294.500 198.483 C 292.850 196.671, 290.038 194.884, 288.250 194.514 C 284.759 193.791, 284.457 194.118, 285.982 196.966 C 287.277 199.387, 284.378 200.635, 282.105 198.635 C 279.391 196.246, 266.699 190.259, 260.572 188.478 C 252.496 186.130, 236.403 186.051, 228.032 188.319 C 215.677 191.665, 207.407 196.490, 197.949 205.873 C 190.837 212.928, 188.509 216.048, 185.168 223 C 180.674 232.351, 178.016 242.067, 178.055 249 C 178.079 253.331, 178.130 253.406, 179.403 251 C 180.131 249.625, 181.013 245.940, 181.365 242.811 C 181.716 239.682, 182.438 235.979, 182.969 234.582 L 183.935 232.042 187.717 235.520 C 191.159 238.685, 191.613 238.846, 192.750 237.308 C 194.520 234.915, 194.318 234.330, 191.750 234.421 C 189.930 234.485, 189.553 234.026, 189.779 232.021 C 189.932 230.658, 190.462 229.138, 190.956 228.644 C 192.081 227.519, 196.409 228.551, 198.240 230.383 C 199.413 231.556, 200.257 231.328, 203.875 228.861 C 206.215 227.265, 211.193 224.417, 214.936 222.532 C 221.081 219.438, 221.695 218.856, 221.255 216.552 C 220.986 215.149, 220.144 214, 219.383 214 C 218.623 214, 218 213.190, 218 212.200 C 218 210.403, 216.226 208, 214.899 208 C 214.513 208, 213.268 209.575, 212.133 211.500 C 210.997 213.425, 209.715 214.981, 209.284 214.958 C 208.218 214.900, 204 208.184, 204 206.546 C 204 205.822, 205.133 204.488, 206.518 203.580 C 208.757 202.113, 209.101 202.100, 209.625 203.465 C 210.330 205.303, 212.987 205.525, 213.032 203.750 C 213.049 203.063, 213.730 201.618, 214.545 200.541 C 216.012 198.601, 216.047 198.602, 218.114 200.669 C 219.781 202.336, 219.987 203.155, 219.139 204.740 C 218.353 206.209, 218.425 207.199, 219.417 208.555 C 220.703 210.314, 220.827 210.316, 222.543 208.600 C 224.259 206.884, 224.243 206.553, 222.143 200.262 C 220.940 196.659, 220.111 193.556, 220.301 193.366 C 220.491 193.176, 222.076 192.735, 223.823 192.385 C 226.350 191.880, 227 192.083, 227 193.375 C 227 194.269, 227.620 195, 228.378 195 C 229.135 195, 230.306 195.663, 230.979 196.474 C 232.298 198.064, 232.967 206.001, 231.781 206 C 231.386 206, 231.322 206.675, 231.638 207.500 C 231.955 208.325, 231.768 209, 231.224 209 C 230.116 209, 228.920 213.838, 229.884 214.419 C 230.223 214.623, 235 213.271, 240.500 211.413 C 246 209.556, 251.263 208.028, 252.195 208.018 C 253.128 208.008, 254.478 206.776, 255.195 205.279 C 255.913 203.783, 257.511 202.055, 258.747 201.438 L 260.994 200.318 258.497 199.181 C 257.124 198.555, 256 197.389, 256 196.589 C 256 195.789, 255.142 194.862, 254.092 194.529 C 253.043 194.196, 251.932 193.266, 251.624 192.462 C 251.315 191.658, 249.811 190.993, 248.281 190.985 C 246.752 190.976, 244.825 190.533, 244 190 C 241.205 188.194, 252.204 188.907, 259.859 191.028 C 269.048 193.575, 275.047 196.602, 283.335 202.875 C 286.922 205.590, 290.113 207.553, 290.428 207.239 C 291.326 206.341, 291.115 207.422, 289.500 212 C 288.675 214.338, 288 216.469, 288 216.734 C 288 217.218, 291.556 216.491, 294.257 215.455 C 295.264 215.068, 296.804 217.001, 299.350 221.847 C 303.460 229.668, 303.603 230.169, 301.498 229.361 C 298.170 228.084, 291.166 231.841, 292.587 234.140 C 292.938 234.709, 293.676 234.464, 294.346 233.556 C 295.717 231.699, 301.281 229.938, 302.804 230.879 C 303.393 231.243, 304.356 232.807, 304.945 234.354 C 305.784 236.561, 305.661 237.912, 304.376 240.620 C 302.231 245.140, 301.531 244.367, 303.500 239.654 C 304.824 236.486, 304.833 236, 303.570 236 C 302.769 236, 301.476 236.910, 300.697 238.022 C 299.475 239.768, 299.115 239.844, 298.067 238.581 C 297.400 237.777, 296.206 237.367, 295.414 237.671 C 294.622 237.975, 293.327 237.686, 292.535 237.029 C 291.744 236.372, 290.238 236.107, 289.189 236.440 C 286.835 237.187, 284 236.189, 284 234.614 C 284 233.969, 282.374 231.767, 280.386 229.721 C 276.172 225.382, 271.809 224.789, 267.727 228 C 266.329 229.100, 264.291 230, 263.199 230 C 261.385 230, 260 231.768, 260 234.082 C 260 234.587, 260.675 235, 261.500 235 C 262.325 235, 262.993 235.787, 262.985 236.750 C 262.972 238.251, 262.827 238.287, 261.966 237 C 261.092 235.692, 260.832 235.724, 259.932 237.250 C 259.365 238.213, 258.028 239, 256.962 239 C 255.474 239, 254.875 238.071, 254.384 235 C 254.032 232.800, 253.557 231, 253.329 231 C 253.100 231, 251.695 232.176, 250.206 233.612 L 247.500 236.225 250.500 235.652 C 252.150 235.337, 252.938 235.324, 252.250 235.623 C 250.410 236.423, 250.730 238.783, 252.750 239.311 C 254.122 239.669, 254.034 239.793, 252.344 239.884 C 250.661 239.974, 250.309 240.464, 250.739 242.111 C 251.236 244.010, 250.986 244.156, 248.273 243.560 C 245.980 243.056, 245.102 243.292, 244.624 244.539 C 244.277 245.442, 244.242 246.582, 244.545 247.073 C 244.849 247.564, 242.789 248.974, 239.969 250.205 C 234.332 252.666, 231.810 256.557, 232.731 261.373 C 233.204 263.846, 237.603 268, 239.749 268 C 243.500 268, 244.885 278.259, 241.621 281.866 C 239.114 284.636, 239.667 296.321, 242.329 296.829 C 245.279 297.391, 248.513 296.213, 251.093 293.639 C 252.417 292.318, 254.400 291.066, 255.500 290.857 C 256.732 290.622, 257.927 289.160, 258.611 287.050 C 259.473 284.394, 260.572 283.330, 263.506 282.314 C 269.207 280.341, 272.331 277, 268.475 277 C 266.398 277, 264.975 272.833, 265.122 267.185 C 265.244 262.511, 265.247 262.515, 266.376 269 C 267.491 275.405, 267.554 275.500, 270.721 275.534 C 276.876 275.600, 280.706 272.520, 276 271.290 C 274.828 270.983, 274 269.926, 274 268.735 C 274 266.940, 274.351 267.070, 277.009 269.852 C 278.663 271.583, 280.431 273, 280.935 273 C 282.784 273, 285.036 279.289, 284.401 282.678 C 283.904 285.324, 284.105 286, 285.389 286 C 286.275 286, 287 285.585, 287 285.078 C 287 283.917, 293.648 281.664, 294.861 282.414 C 295.356 282.720, 295.986 284.144, 296.260 285.579 C 296.652 287.629, 295.712 289.444, 291.867 294.065 C 283.452 304.176, 270.752 311.524, 256.660 314.435 C 246.612 316.511, 240.224 316.399, 230.099 313.972 C 213.900 310.089, 201.609 302.064, 192.930 289.707 C 190.219 285.846, 188 282.092, 188 281.366 C 188 279.418, 191.923 277.193, 196.704 276.430 C 199.016 276.061, 201.673 274.913, 202.609 273.880 C 203.545 272.846, 205.327 272, 206.571 272 C 207.827 272, 210.737 270.224, 213.117 268.005 L 217.401 264.009 214.311 260.755 C 212.611 258.965, 210.927 256.522, 210.567 255.326 C 210.208 254.130, 208.071 251.254, 205.820 248.934 L 201.726 244.715 204.113 242.866 C 214.505 234.813, 246.915 219.245, 247.795 221.884 C 247.999 222.498, 249.284 223, 250.651 223 C 252.628 223, 253.013 222.616, 252.537 221.118 C 252.019 219.483, 253.026 218.942, 260.178 217.012 C 264.710 215.790, 271.136 214.198, 274.458 213.474 C 277.781 212.751, 279.295 212.123, 277.822 212.079 C 273.365 211.947, 259.979 214.011, 251.634 216.117 C 247.308 217.208, 243.596 217.929, 243.385 217.718 C 242.800 217.133, 262.406 211.204, 272 209.064 C 281.518 206.942, 279.197 206.447, 267.322 208.067 C 224.244 213.946, 182.616 240.001, 171.570 268 C 170.594 270.475, 169.581 275.875, 169.320 280 C 168.909 286.478, 169.161 288.103, 171.172 291.927 C 172.452 294.362, 175.075 297.492, 177 298.882 L 180.500 301.411 177.370 297.955 C 175.648 296.055, 173.675 293.375, 172.984 292 L 171.729 289.500 174.114 291.601 C 178.499 295.463, 179.406 295.389, 176.283 291.425 C 171.497 285.351, 171.279 282.223, 175.069 274.001 C 176.844 270.151, 178.623 267, 179.023 267 C 179.423 267, 180.039 268.446, 180.393 270.214 C 180.746 271.981, 182.883 277.243, 185.140 281.907 C 193.269 298.703, 210.408 312.090, 229.500 316.559 C 239.752 318.958, 256.051 318.092, 265.894 314.625 C 276.039 311.052, 280.986 307.957, 289.538 299.834 C 295.227 294.430, 297.891 290.883, 301.479 283.936 C 307.410 272.452, 308.924 267.459, 309.667 256.940 C 310.679 242.603, 307.394 229.714, 299.430 216.773 C 296.563 212.113, 296.103 210.676, 296.965 209.066 C 298.162 206.828, 299.766 206.489, 316.053 205.033 C 331.466 203.655, 330.276 203.458, 329.454 207.250 C 329.066 209.037, 328.468 210.725, 328.124 211 C 327.781 211.275, 327.354 212.400, 327.175 213.500 C 326.996 214.600, 325.489 219.918, 323.826 225.318 C 322.163 230.718, 321.035 235.368, 321.318 235.651 C 321.602 235.935, 323.798 235.298, 326.199 234.236 C 330.224 232.456, 330.786 231.728, 333.411 224.903 C 334.983 220.814, 337.318 216.679, 338.628 215.667 C 341.052 213.793, 341.822 210.441, 339.969 209.823 C 339.296 209.599, 339.415 208.103, 340.312 205.512 C 341.452 202.219, 342.261 201.426, 345.068 200.852 C 349.237 200, 349.969 200.403, 349.249 203.158 C 348.744 205.087, 348.992 205.252, 351.618 204.726 C 356.028 203.844, 365.360 200.199, 367.560 198.499 C 369.358 197.109, 369.378 196.905, 367.827 195.696 C 366.263 194.477, 366.263 194.321, 367.827 193.300 C 369.174 192.420, 369.256 191.952, 368.245 190.899 C 366.718 189.307, 351.754 189.322, 345 190.922 C 340.554 191.976, 340.461 191.944, 337.236 188.312 C 335.113 185.920, 334.363 184.394, 335.090 183.945 C 336.686 182.958, 334.260 178.686, 332.490 179.365 C 331.662 179.683, 328.945 177.178, 325.524 172.943 C 320.100 166.230, 319.766 166, 315.457 166 C 313.006 166, 311 166.242, 311 166.538 M 172.895 184.814 C 162.289 196.298, 155.385 209.345, 150.835 226.500 C 147.876 237.658, 147.880 260.007, 150.843 271.175 C 155.133 287.342, 162.621 301.411, 173.477 313.703 C 178.554 319.450, 193.300 331, 195.562 331 C 198.395 331, 196.896 329.102, 190.404 324.469 C 162.920 304.856, 147.779 270.777, 151.985 237.991 C 154.484 218.508, 162.880 199.973, 175.392 186.315 C 179.308 182.040, 180.949 179.549, 180.287 178.887 C 179.624 178.224, 177.146 180.211, 172.895 184.814 M 279 234.996 C 279 236.209, 281.805 237.529, 282.629 236.705 C 282.927 236.406, 282.233 235.660, 281.086 235.046 C 279.639 234.272, 279 234.257, 279 234.996 M 336.649 252.750 C 335.821 265.142, 332.958 277.057, 328.481 286.748 C 325.805 292.539, 325.267 294.547, 326.231 295.143 C 329.515 297.172, 337.636 273.673, 339.259 257.446 C 339.867 251.366, 340.071 245.628, 339.713 244.696 C 338.258 240.903, 337.267 243.510, 336.649 252.750 M 186.750 257.738 C 184.137 260.395, 182 263.366, 182 264.342 C 182 267.023, 184.150 275.002, 184.869 274.988 C 185.870 274.969, 193.350 263.814, 193.177 262.597 C 193.090 261.994, 192.678 259.567, 192.260 257.204 L 191.500 252.908 186.750 257.738 M 257.816 293.504 C 256.211 297.026, 257.551 297.770, 260.504 294.996 C 263.528 292.156, 263.665 291, 260.979 291 C 259.792 291, 258.486 292.034, 257.816 293.504 M 315 293.483 C 315 293.982, 316.238 295.708, 317.750 297.318 L 320.500 300.246 315.750 299.562 C 310.042 298.739, 309.093 300.599, 314.750 301.520 C 316.813 301.856, 320.687 302.802, 323.360 303.622 C 328.645 305.243, 330.571 304.879, 326.836 302.965 C 325.551 302.307, 322.363 299.700, 319.750 297.172 C 317.137 294.644, 315 292.984, 315 293.483 M 306.655 306.829 C 305.745 307.835, 305 309.158, 305 309.770 C 305 311.184, 316.402 320.011, 318.174 319.968 C 318.903 319.951, 318.262 318.848, 316.750 317.516 C 315.238 316.185, 314 314.624, 314 314.048 C 314 312.510, 317.228 312.771, 319.712 314.511 C 320.898 315.342, 322.119 315.616, 322.426 315.120 C 323.017 314.164, 318.828 311, 316.971 311 C 316.366 311, 314.735 309.650, 313.347 308 C 310.430 304.534, 308.964 304.277, 306.655 306.829 M 308.167 308.233 C 307.314 309.086, 307.440 309.829, 308.669 311.186 C 310.828 313.573, 313 313.497, 313 311.035 C 313 308.524, 309.757 306.643, 308.167 308.233 M 298.252 316.250 L 296.154 318.500 302.017 325 L 307.880 331.500 310.637 328.780 C 313.744 325.716, 313.136 323.662, 309.971 326.526 C 307.979 328.329, 307.876 328.319, 305.715 326.129 C 303.599 323.985, 303.581 323.824, 305.310 322.538 C 306.351 321.764, 306.699 320.932, 306.129 320.580 C 305.584 320.243, 304.856 320.425, 304.510 320.984 C 303.484 322.644, 301.573 322.147, 300.137 319.848 C 298.981 317.997, 299.018 317.570, 300.396 316.798 C 302.077 315.858, 302.593 314, 301.174 314 C 300.720 314, 299.405 315.012, 298.252 316.250 M 292.010 322.050 C 292.015 322.848, 293.140 325.907, 294.510 328.849 C 295.879 331.791, 297 334.476, 297 334.815 C 297 335.154, 294.579 333.041, 291.619 330.118 C 288.660 327.195, 285.982 325.220, 285.668 325.729 C 285.353 326.237, 287.887 329.417, 291.298 332.794 C 299.565 340.980, 301.232 340.130, 296.929 329.923 C 293.673 322.200, 291.993 319.510, 292.010 322.050 M 203.981 324.478 C 204.984 325.686, 204.462 327.136, 201.119 332.428 C 198.871 335.988, 197.433 339.150, 197.924 339.453 C 198.416 339.757, 200.680 337.056, 202.957 333.451 C 206.471 327.886, 207.429 326.987, 209.298 327.498 C 211.174 328.010, 211.056 327.723, 208.500 325.555 C 205.142 322.706, 201.863 321.925, 203.981 324.478 M 214.347 329.765 C 212.462 330.967, 207.921 342.175, 208.535 344.110 C 209.175 346.126, 212.410 347.483, 214.094 346.442 C 215.697 345.451, 219.979 335.897, 219.990 333.285 C 219.996 332.067, 219.130 330.605, 218.066 330.035 C 215.790 328.817, 215.830 328.820, 214.347 329.765 M 277.250 329.662 C 275.431 330.396, 275.717 334.106, 277.988 339.241 C 280.270 344.398, 282.183 346.307, 284.595 345.833 C 288.438 345.077, 288.607 342.361, 285.237 335.527 C 282.099 329.162, 280.819 328.222, 277.250 329.662 M 215.400 331.816 C 213.490 333.115, 209.787 343.187, 210.833 344.233 C 211.379 344.779, 212.302 344.931, 212.884 344.571 C 214.119 343.808, 218 335.358, 218 333.432 C 218 331.749, 216.692 330.936, 215.400 331.816 M 278 332.565 C 278 333.425, 278.955 336.350, 280.123 339.065 C 281.589 342.471, 282.828 344, 284.123 344 C 286.556 344, 286.493 343.172, 283.555 336.529 C 281.232 331.275, 278 328.969, 278 332.565 M 265.475 334.395 C 263.698 335.694, 263.661 336.154, 264.931 341.145 C 266.977 349.187, 268.025 351, 270.625 351 C 273.208 351, 275.309 347.970, 274.389 345.572 C 273.501 343.256, 271.756 343.656, 272.502 346.005 C 272.929 347.351, 272.608 348.213, 271.526 348.628 C 269.352 349.463, 269.092 349.078, 267.364 342.463 C 266.260 338.233, 266.161 336.440, 266.988 335.616 C 267.813 334.794, 268.615 335.158, 270.032 337 C 271.828 339.335, 271.957 339.365, 271.978 337.450 C 272.002 335.223, 270.260 333, 268.491 333 C 267.881 333, 266.524 333.628, 265.475 334.395 M 231.120 343.010 C 230.446 347.415, 230.169 351.465, 230.506 352.010 C 230.843 352.554, 232.453 353, 234.084 353 C 237.542 353, 238.444 351.301, 239.509 342.776 C 240.133 337.777, 239.991 337.065, 238.170 336.091 C 233.378 333.526, 232.429 334.458, 231.120 343.010 M 245 345.059 C 245 350.844, 245.361 353.895, 246 353.500 C 246.550 353.160, 247 349.084, 247 344.441 C 247 339.480, 246.588 336, 246 336 C 245.407 336, 245 339.686, 245 345.059 M 252.667 336.667 C 250.919 338.414, 252.221 342.366, 255.500 345.269 C 257.425 346.974, 259 348.934, 259 349.625 C 259 351.839, 256.741 352.366, 255.359 350.476 C 253.715 348.228, 252.152 349.432, 253.643 351.798 C 255.116 354.138, 257.443 354.414, 259.379 352.479 C 261.821 350.036, 261.361 348.101, 257.500 344.564 C 253.908 341.273, 252.881 338, 255.441 338 C 256.234 338, 257.160 338.450, 257.500 339 C 258.709 340.957, 260.090 340.036, 259 338 C 257.975 336.084, 254.071 335.262, 252.667 336.667 M 233.112 343.280 C 231.699 351.392, 231.655 351, 233.981 351 C 236.198 351, 236.968 348.914, 237.291 342.037 C 237.452 338.597, 237.124 337.496, 235.862 337.235 C 234.564 336.967, 233.992 338.223, 233.112 343.280" stroke="none" fill="#0e0e0e" fill-rule="evenodd"/></svg>